{
  "accessors": [
    {
      "bufferView": 2,
      "componentType": 5126,
      "count": 65532,
      "max": [
        11.134621620178223,
        21.69251823425293,
        20.526002883911133
      ],
      "min": [
        -14.070889472961426,
        -20.11595344543457,
        -21.659990310668945
      ],
      "type": "VEC3"
    },
    {
      "bufferView": 2,
      "byteOffset": 786384,
      "componentType": 5126,
      "count": 65532,
      "max": [
        0.9999958276748657,
        0.999776303768158,
        0.9999414682388306
      ],
      "min": [
        -0.9935976266860962,
        -0.9999619722366333,
        -0.9999147653579712
      ],
      "type": "VEC3"
    },
    {
      "bufferView": 1,
      "componentType": 5126,
      "count": 65532,
      "max": [
        0.9996320009231567,
        0.987060010433197
      ],
      "min": [
        0.00024399999529123306,
        0.0002589999930933118
      ],
      "type": "VEC2"
    },
    {
      "bufferView": 0,
      "componentType": 5125,
      "count": 270543,
      "type": "SCALAR"
    },
    {
      "bufferView": 2,
      "byteOffset": 1572768,
      "componentType": 5126,
      "count": 65533,
      "max": [
        9.964472770690918,
        23.810565948486328,
        20.568693161010742
      ],
      "min": [
        -14.070889472961426,
        -18.801429748535156,
        -21.01552391052246
      ],
      "type": "VEC3"
    },
    {
      "bufferView": 2,
      "byteOffset": 2359164,
      "componentType": 5126,
      "count": 65533,
      "max": [
        0.999937891960144,
        0.9999310970306396,
        0.9997105002403259
      ],
      "min": [
        -0.9999315738677979,
        -0.9999920129776001,
        -0.9999945163726807
      ],
      "type": "VEC3"
    },
    {
      "bufferView": 1,
      "byteOffset": 524256,
      "componentType": 5126,
      "count": 65533,
      "max": [
        0.9997550249099731,
        0.9880369901657104
      ],
      "min": [
        0.00024399999529123306,
        0.0002579999854788184
      ],
      "type": "VEC2"
    },
    {
      "bufferView": 0,
      "byteOffset": 1082172,
      "componentType": 5125,
      "count": 256653,
      "type": "SCALAR"
    },
    {
      "bufferView": 2,
      "byteOffset": 3145560,
      "componentType": 5126,
      "count": 45680,
      "max": [
        12.586670875549316,
        23.862701416015625,
        21.171031951904297
      ],
      "min": [
        -14.070889472961426,
        -20.11961555480957,
        -21.659990310668945
      ],
      "type": "VEC3"
    },
    {
      "bufferView": 2,
      "byteOffset": 3693720,
      "componentType": 5126,
      "count": 45680,
      "max": [
        0.9999188184738159,
        0.999795138835907,
        0.9998226761817932
      ],
      "min": [
        -0.9999315738677979,
        -0.9991858005523682,
        -0.9999945163726807
      ],
      "type": "VEC3"
    },
    {
      "bufferView": 1,
      "byteOffset": 1048520,
      "componentType": 5126,
      "count": 45680,
      "max": [
        0.9997000098228455,
        0.9899899959564209
      ],
      "min": [
        0.00024399999529123306,
        0.0002500000118743628
      ],
      "type": "VEC2"
    },
    {
      "bufferView": 0,
      "byteOffset": 2108784,
      "componentType": 5125,
      "count": 154356,
      "type": "SCALAR"
    }
  ],
  "asset": {
    "extras": {
      "author": "matousekfoto (https://sketchfab.com/matousekfoto)",
      "license": "CC-BY-4.0 (http://creativecommons.org/licenses/by/4.0/)",
      "source": "https://sketchfab.com/3d-models/polyporus-mushroom-fc7ef8ede6bd4301a9fb51987c73f10d",
      "title": "Polyporus mushroom"
    },
    "generator": "Sketchfab-12.67.0",
    "version": "2.0"
  },
  "bufferViews": [
    {
      "buffer": 0,
      "byteLength": 2726208,
      "name": "floatBufferViews",
      "target": 34963
    },
    {
      "buffer": 0,
      "byteLength": 1413960,
      "byteOffset": 2726208,
      "byteStride": 8,
      "name": "floatBufferViews",
      "target": 34962
    },
    {
      "buffer": 0,
      "byteLength": 4241880,
      "byteOffset": 4140168,
      "byteStride": 12,
      "name": "floatBufferViews",
      "target": 34962
    }
  ],
  "buffers": [
    {
      "byteLength": 8382048,
      "uri": "scene.bin"
    }
  ],
  "extensionsUsed": [
    "KHR_materials_unlit"
  ],
  "images": [
    {
      "uri": "textures/polyporus-tree_u1_v1_baseColor.jpeg"
    }
  ],
  "materials": [
    {
      "doubleSided": true,
      "extensions": {
        "KHR_materials_unlit": {}
      },
      "name": "polyporus-tree_u1_v1",
      "pbrMetallicRoughness": {
        "baseColorTexture": {
          "index": 0
        },
        "metallicFactor": 0.0
      }
    }
  ],
  "meshes": [
    {
      "name": "Object_0",
      "primitives": [
        {
          "attributes": {
            "NORMAL": 1,
            "POSITION": 0,
            "TEXCOORD_0": 2
          },
          "indices": 3,
          "material": 0,
          "mode": 4
        }
      ]
    },
    {
      "name": "Object_1",
      "primitives": [
        {
          "attributes": {
            "NORMAL": 5,
            "POSITION": 4,
            "TEXCOORD_0": 6
          },
          "indices": 7,
          "material": 0,
          "mode": 4
        }
      ]
    },
    {
      "name": "Object_2",
      "primitives": [
        {
          "attributes": {
            "NORMAL": 9,
            "POSITION": 8,
            "TEXCOORD_0": 10
          },
          "indices": 11,
          "material": 0,
          "mode": 4
        }
      ]
    }
  ],
  "nodes": [
    {
      "children": [
        1
      ],
      "matrix": [
        -0.015101363014316638,
        0.005106378344921669,
        -0.0006954850604493207,
        0.0,
        0.0027054423663503413,
        0.006022442127234354,
        -0.014526553037339072,
        0.0,
        -0.004386271623070703,
        -0.013865967858882831,
        -0.006565480270348981,
        0.0,
        -1.8289821147918701,
        -0.9257718920707702,
        -0.30065035820007346,
        1.0
      ],
      "name": "Sketchfab_model"
    },
    {
      "children": [
        2,
        3,
        4
      ],
      "name": "polyporus-tree.obj.cleaner.materialmerger.gles"
    },
    {
      "mesh": 0,
      "name": "Object_2"
    },
    {
      "mesh": 1,
      "name": "Object_3"
    },
    {
      "mesh": 2,
      "name": "Object_4"
    }
  ],
  "samplers": [
    {
      "magFilter": 9729,
      "minFilter": 9987,
      "wrapS": 10497,
      "wrapT": 10497
    }
  ],
  "scene": 0,
  "scenes": [
    {
      "name": "Sketchfab_Scene",
      "nodes": [
        0
      ]
    }
  ],
  "textures": [
    {
      "sampler": 0,
      "source": 0
    }
  ]
}
