{
  "accessors": [
    {
      "bufferView": 2,
      "componentType": 5126,
      "count": 65532,
      "max": [
        0.24773134291172028,
        0.05186929553747177,
        0.32704880833625793
      ],
      "min": [
        -0.3438226878643036,
        -0.1208973154425621,
        -0.3720114231109619
      ],
      "type": "VEC3"
    },
    {
      "bufferView": 2,
      "byteOffset": 786384,
      "componentType": 5126,
      "count": 65532,
      "max": [
        0.9999432563781738,
        0.9999972581863403,
        0.9998903274536133
      ],
      "min": [
        -0.9999820590019226,
        -0.9997556209564209,
        -0.9999569058418274
      ],
      "type": "VEC3"
    },
    {
      "bufferView": 1,
      "componentType": 5126,
      "count": 65532,
      "max": [
        0.9999473094940186,
        0.9918278455734253
      ],
      "min": [
        0.0010318976128473878,
        2.3645750388823217e-06
      ],
      "type": "VEC2"
    },
    {
      "bufferView": 1,
      "byteOffset": 524256,
      "componentType": 5126,
      "count": 65532,
      "max": [
        0.9999473094940186,
        0.9918278455734253
      ],
      "min": [
        0.0010318976128473878,
        2.3645750388823217e-06
      ],
      "type": "VEC2"
    },
    {
      "bufferView": 1,
      "byteOffset": 1048512,
      "componentType": 5126,
      "count": 65532,
      "max": [
        0.9999473094940186,
        0.9918278455734253
      ],
      "min": [
        0.0010318976128473878,
        2.3645750388823217e-06
      ],
      "type": "VEC2"
    },
    {
      "bufferView": 1,
      "byteOffset": 1572768,
      "componentType": 5126,
      "count": 65532,
      "max": [
        0.9999473094940186,
        0.9918278455734253
      ],
      "min": [
        0.0010318976128473878,
        2.3645750388823217e-06
      ],
      "type": "VEC2"
    },
    {
      "bufferView": 1,
      "byteOffset": 2097024,
      "componentType": 5126,
      "count": 65532,
      "max": [
        0.9999473094940186,
        0.9918278455734253
      ],
      "min": [
        0.0010318976128473878,
        2.3645750388823217e-06
      ],
      "type": "VEC2"
    },
    {
      "bufferView": 0,
      "componentType": 5125,
      "count": 291756,
      "type": "SCALAR"
    },
    {
      "bufferView": 2,
      "byteOffset": 1572768,
      "componentType": 5126,
      "count": 65532,
      "max": [
        0.24768903851509094,
        0.052831411361694336,
        0.27569863200187683
      ],
      "min": [
        -0.3816206157207489,
        -0.1060192808508873,
        -0.38318711519241333
      ],
      "type": "VEC3"
    },
    {
      "bufferView": 2,
      "byteOffset": 2359152,
      "componentType": 5126,
      "count": 65532,
      "max": [
        0.9999834895133972,
        0.9999932646751404,
        0.9997163414955139
      ],
      "min": [
        -0.9999820590019226,
        -0.9997282028198242,
        -0.9999328255653381
      ],
      "type": "VEC3"
    },
    {
      "bufferView": 1,
      "byteOffset": 2621280,
      "componentType": 5126,
      "count": 65532,
      "max": [
        0.999998927116394,
        0.9974254965782166
      ],
      "min": [
        2.2879230527905747e-06,
        0.000919794721994549
      ],
      "type": "VEC2"
    },
    {
      "bufferView": 1,
      "byteOffset": 3145536,
      "componentType": 5126,
      "count": 65532,
      "max": [
        0.999998927116394,
        0.9974254965782166
      ],
      "min": [
        2.2879230527905747e-06,
        0.000919794721994549
      ],
      "type": "VEC2"
    },
    {
      "bufferView": 1,
      "byteOffset": 3669792,
      "componentType": 5126,
      "count": 65532,
      "max": [
        0.999998927116394,
        0.9974254965782166
      ],
      "min": [
        2.2879230527905747e-06,
        0.000919794721994549
      ],
      "type": "VEC2"
    },
    {
      "bufferView": 1,
      "byteOffset": 4194048,
      "componentType": 5126,
      "count": 65532,
      "max": [
        0.999998927116394,
        0.9974254965782166
      ],
      "min": [
        2.2879230527905747e-06,
        0.000919794721994549
      ],
      "type": "VEC2"
    },
    {
      "bufferView": 1,
      "byteOffset": 4718304,
      "componentType": 5126,
      "count": 65532,
      "max": [
        0.999998927116394,
        0.9974254965782166
      ],
      "min": [
        2.2879230527905747e-06,
        0.000919794721994549
      ],
      "type": "VEC2"
    },
    {
      "bufferView": 0,
      "byteOffset": 1167024,
      "componentType": 5125,
      "count": 275757,
      "type": "SCALAR"
    },
    {
      "bufferView": 2,
      "byteOffset": 3145536,
      "componentType": 5126,
      "count": 37049,
      "max": [
        0.24769464135169983,
        0.025184068828821182,
        0.38318711519241333
      ],
      "min": [
        -0.26409587264060974,
        -0.11092962324619293,
        -0.37876883149147034
      ],
      "type": "VEC3"
    },
    {
      "bufferView": 2,
      "byteOffset": 3590124,
      "componentType": 5126,
      "count": 37049,
      "max": [
        0.9999937415122986,
        0.9999983310699463,
        0.9995483160018921
      ],
      "min": [
        -0.9999892115592957,
        -0.9999441504478455,
        -0.9997299313545227
      ],
      "type": "VEC3"
    },
    {
      "bufferView": 1,
      "byteOffset": 5242560,
      "componentType": 5126,
      "count": 37049,
      "max": [
        0.9999929070472717,
        0.996042788028717
      ],
      "min": [
        0.003959257621318102,
        2.4317458155564964e-05
      ],
      "type": "VEC2"
    },
    {
      "bufferView": 1,
      "byteOffset": 5538952,
      "componentType": 5126,
      "count": 37049,
      "max": [
        0.9999929070472717,
        0.996042788028717
      ],
      "min": [
        0.003959257621318102,
        2.4317458155564964e-05
      ],
      "type": "VEC2"
    },
    {
      "bufferView": 1,
      "byteOffset": 5835344,
      "componentType": 5126,
      "count": 37049,
      "max": [
        0.9999929070472717,
        0.996042788028717
      ],
      "min": [
        0.003959257621318102,
        2.4317458155564964e-05
      ],
      "type": "VEC2"
    },
    {
      "bufferView": 1,
      "byteOffset": 6131736,
      "componentType": 5126,
      "count": 37049,
      "max": [
        0.9999929070472717,
        0.996042788028717
      ],
      "min": [
        0.003959257621318102,
        2.4317458155564964e-05
      ],
      "type": "VEC2"
    },
    {
      "bufferView": 1,
      "byteOffset": 6428128,
      "componentType": 5126,
      "count": 37049,
      "max": [
        0.9999929070472717,
        0.996042788028717
      ],
      "min": [
        0.003959257621318102,
        2.4317458155564964e-05
      ],
      "type": "VEC2"
    },
    {
      "bufferView": 0,
      "byteOffset": 2270052,
      "componentType": 5125,
      "count": 158538,
      "type": "SCALAR"
    }
  ],
  "asset": {
    "extras": {
      "author": "Peter Katz (https://sketchfab.com/peterkatz)",
      "license": "CC-BY-NC-SA-4.0 (http://creativecommons.org/licenses/by-nc-sa/4.0/)",
      "source": "https://sketchfab.com/3d-models/mushrooms-e8ce70b3b0044bb68c2b556624d1767e",
      "title": "Mushrooms"
    },
    "generator": "Sketchfab-13.33.0",
    "version": "2.0"
  },
  "bufferViews": [
    {
      "buffer": 0,
      "byteLength": 2904204,
      "name": "floatBufferViews",
      "target": 34963
    },
    {
      "buffer": 0,
      "byteLength": 6724520,
      "byteOffset": 2904204,
      "byteStride": 8,
      "name": "floatBufferViews",
      "target": 34962
    },
    {
      "buffer": 0,
      "byteLength": 4034712,
      "byteOffset": 9628724,
      "byteStride": 12,
      "name": "floatBufferViews",
      "target": 34962
    }
  ],
  "buffers": [
    {
      "byteLength": 13663436,
      "uri": "scene.bin"
    }
  ],
  "extensionsUsed": [
    "KHR_materials_unlit"
  ],
  "images": [
    {
      "uri": "textures/material_0_baseColor.jpeg"
    }
  ],
  "materials": [
    {
      "extensions": {
        "KHR_materials_unlit": {}
      },
      "name": "material_0",
      "pbrMetallicRoughness": {
        "baseColorTexture": {
          "index": 0
        },
        "metallicFactor": 0.0
      }
    }
  ],
  "meshes": [
    {
      "name": "Object_0",
      "primitives": [
        {
          "attributes": {
            "NORMAL": 1,
            "POSITION": 0,
            "TEXCOORD_0": 2,
            "TEXCOORD_1": 3,
            "TEXCOORD_2": 4,
            "TEXCOORD_3": 5,
            "TEXCOORD_4": 6
          },
          "indices": 7,
          "material": 0,
          "mode": 4
        }
      ]
    },
    {
      "name": "Object_1",
      "primitives": [
        {
          "attributes": {
            "NORMAL": 9,
            "POSITION": 8,
            "TEXCOORD_0": 10,
            "TEXCOORD_1": 11,
            "TEXCOORD_2": 12,
            "TEXCOORD_3": 13,
            "TEXCOORD_4": 14
          },
          "indices": 15,
          "material": 0,
          "mode": 4
        }
      ]
    },
    {
      "name": "Object_2",
      "primitives": [
        {
          "attributes": {
            "NORMAL": 17,
            "POSITION": 16,
            "TEXCOORD_0": 18,
            "TEXCOORD_1": 19,
            "TEXCOORD_2": 20,
            "TEXCOORD_3": 21,
            "TEXCOORD_4": 22
          },
          "indices": 23,
          "material": 0,
          "mode": 4
        }
      ]
    }
  ],
  "nodes": [
    {
      "children": [
        1
      ],
      "matrix": [
        1.0,
        0.0,
        0.0,
        0.0,
        0.0,
        2.220446049250313e-16,
        -1.0,
        0.0,
        0.0,
        1.0,
        2.220446049250313e-16,
        0.0,
        0.0,
        0.0,
        0.0,
        1.0
      ],
      "name": "Sketchfab_model"
    },
    {
      "children": [
        2
      ],
      "name": "root"
    },
    {
      "children": [
        3
      ],
      "matrix": [
        1.0,
        0.0,
        0.0,
        0.0,
        0.0,
        2.220446049250313e-16,
        1.0,
        0.0,
        0.0,
        -1.0,
        2.220446049250313e-16,
        0.0,
        0.0,
        0.0,
        0.0,
        1.0
      ],
      "name": "GLTF_SceneRootNode"
    },
    {
      "children": [
        4,
        5,
        6
      ],
      "name": "_0"
    },
    {
      "mesh": 0,
      "name": "Object_4"
    },
    {
      "mesh": 1,
      "name": "Object_5"
    },
    {
      "mesh": 2,
      "name": "Object_6"
    }
  ],
  "samplers": [
    {
      "magFilter": 9729,
      "minFilter": 9987,
      "wrapS": 10497,
      "wrapT": 10497
    }
  ],
  "scene": 0,
  "scenes": [
    {
      "name": "Sketchfab_Scene",
      "nodes": [
        0
      ]
    }
  ],
  "textures": [
    {
      "sampler": 0,
      "source": 0
    }
  ]
}
