{
  "accessors": [
    {
      "bufferView": 2,
      "componentType": 5126,
      "count": 65532,
      "max": [
        9.662497520446777,
        6.61513614654541,
        11.5839204788208
      ],
      "min": [
        -11.684297561645508,
        -0.604802131652832,
        -7.392017364501953
      ],
      "type": "VEC3"
    },
    {
      "bufferView": 2,
      "byteOffset": 786384,
      "componentType": 5126,
      "count": 65532,
      "max": [
        0.9999494552612305,
        0.9999957084655762,
        0.9999103546142578
      ],
      "min": [
        -0.999875009059906,
        -0.9974842071533203,
        -0.999824047088623
      ],
      "type": "VEC3"
    },
    {
      "bufferView": 1,
      "componentType": 5126,
      "count": 65532,
      "max": [
        0.9996770024299622,
        0.9880369901657104
      ],
      "min": [
        0.000244140625,
        0.000683386460877955
      ],
      "type": "VEC2"
    },
    {
      "bufferView": 1,
      "byteOffset": 524256,
      "componentType": 5126,
      "count": 65532,
      "max": [
        0.9996770024299622,
        0.9880369901657104
      ],
      "min": [
        0.000244140625,
        0.000683386460877955
      ],
      "type": "VEC2"
    },
    {
      "bufferView": 0,
      "componentType": 5125,
      "count": 65532,
      "type": "SCALAR"
    },
    {
      "bufferView": 2,
      "byteOffset": 1572768,
      "componentType": 5126,
      "count": 65532,
      "max": [
        9.663941383361816,
        5.766806602478027,
        12.271272659301758
      ],
      "min": [
        -11.683558464050293,
        -0.6954517364501953,
        -12.928279876708984
      ],
      "type": "VEC3"
    },
    {
      "bufferView": 2,
      "byteOffset": 2359152,
      "componentType": 5126,
      "count": 65532,
      "max": [
        0.9998946785926819,
        0.9999808073043823,
        0.9998677968978882
      ],
      "min": [
        -0.9997008442878723,
        -0.9988786578178406,
        -0.9999874234199524
      ],
      "type": "VEC3"
    },
    {
      "bufferView": 1,
      "byteOffset": 1048512,
      "componentType": 5126,
      "count": 65532,
      "max": [
        0.9997327327728271,
        0.9831541776657104
      ],
      "min": [
        0.000244140625,
        0.0002576900878921151
      ],
      "type": "VEC2"
    },
    {
      "bufferView": 1,
      "byteOffset": 1572768,
      "componentType": 5126,
      "count": 65532,
      "max": [
        0.9997327327728271,
        0.9831541776657104
      ],
      "min": [
        0.000244140625,
        0.0002576900878921151
      ],
      "type": "VEC2"
    },
    {
      "bufferView": 0,
      "byteOffset": 262128,
      "componentType": 5125,
      "count": 65532,
      "type": "SCALAR"
    },
    {
      "bufferView": 2,
      "byteOffset": 3145536,
      "componentType": 5126,
      "count": 65532,
      "max": [
        -0.700914204120636,
        6.191783428192139,
        3.1856179237365723
      ],
      "min": [
        -11.68107795715332,
        0.2389059066772461,
        -12.929155349731445
      ],
      "type": "VEC3"
    },
    {
      "bufferView": 2,
      "byteOffset": 3931920,
      "componentType": 5126,
      "count": 65532,
      "max": [
        0.9997496008872986,
        0.9999822378158569,
        0.9998369216918945
      ],
      "min": [
        -0.9999932050704956,
        -0.9989929795265198,
        -0.9995734691619873
      ],
      "type": "VEC3"
    },
    {
      "bufferView": 1,
      "byteOffset": 2097024,
      "componentType": 5126,
      "count": 65532,
      "max": [
        0.9996614456176758,
        0.9929198026657104
      ],
      "min": [
        0.000244140625,
        0.0002643062034621835
      ],
      "type": "VEC2"
    },
    {
      "bufferView": 1,
      "byteOffset": 2621280,
      "componentType": 5126,
      "count": 65532,
      "max": [
        0.9996614456176758,
        0.9929198026657104
      ],
      "min": [
        0.000244140625,
        0.0002643062034621835
      ],
      "type": "VEC2"
    },
    {
      "bufferView": 0,
      "byteOffset": 524256,
      "componentType": 5125,
      "count": 65532,
      "type": "SCALAR"
    },
    {
      "bufferView": 2,
      "byteOffset": 4718304,
      "componentType": 5126,
      "count": 12522,
      "max": [
        -0.7049254179000854,
        7.214916706085205,
        11.532575607299805
      ],
      "min": [
        -11.667770385742188,
        -0.5313587188720703,
        -12.794787406921387
      ],
      "type": "VEC3"
    },
    {
      "bufferView": 2,
      "byteOffset": 4868568,
      "componentType": 5126,
      "count": 12522,
      "max": [
        0.9983895421028137,
        0.9999619126319885,
        0.9999781847000122
      ],
      "min": [
        -0.9984988570213318,
        -0.9823763370513916,
        -0.9930280447006226
      ],
      "type": "VEC3"
    },
    {
      "bufferView": 1,
      "byteOffset": 3145536,
      "componentType": 5126,
      "count": 12522,
      "max": [
        0.9995590448379517,
        0.9792479276657104
      ],
      "min": [
        0.000244140625,
        0.005601782817393541
      ],
      "type": "VEC2"
    },
    {
      "bufferView": 1,
      "byteOffset": 3245712,
      "componentType": 5126,
      "count": 12522,
      "max": [
        0.9995590448379517,
        0.9792479276657104
      ],
      "min": [
        0.000244140625,
        0.005601782817393541
      ],
      "type": "VEC2"
    },
    {
      "bufferView": 0,
      "byteOffset": 786384,
      "componentType": 5125,
      "count": 12522,
      "type": "SCALAR"
    }
  ],
  "asset": {
    "extras": {
      "author": "Abby Crawford (https://sketchfab.com/abby)",
      "license": "CC-BY-4.0 (http://creativecommons.org/licenses/by/4.0/)",
      "source": "https://sketchfab.com/3d-models/stump-now-with-bigger-mushrooms-98230227d3394bc783d191276843909d",
      "title": "Stump: Now with bigger mushrooms"
    },
    "generator": "Sketchfab-12.67.0",
    "version": "2.0"
  },
  "bufferViews": [
    {
      "buffer": 0,
      "byteLength": 836472,
      "name": "floatBufferViews",
      "target": 34963
    },
    {
      "buffer": 0,
      "byteLength": 3345888,
      "byteOffset": 836472,
      "byteStride": 8,
      "name": "floatBufferViews",
      "target": 34962
    },
    {
      "buffer": 0,
      "byteLength": 5018832,
      "byteOffset": 4182360,
      "byteStride": 12,
      "name": "floatBufferViews",
      "target": 34962
    }
  ],
  "buffers": [
    {
      "byteLength": 9201192,
      "uri": "scene.bin"
    }
  ],
  "extensionsUsed": [
    "KHR_materials_unlit"
  ],
  "images": [
    {
      "uri": "textures/mushroom-stump-ii_u1_v1_baseColor.jpeg"
    }
  ],
  "materials": [
    {
      "doubleSided": true,
      "emissiveFactor": [
        0.3819364214571502,
        0.3819364214571502,
        0.3819364214571502
      ],
      "emissiveTexture": {
        "index": 0
      },
      "extensions": {
        "KHR_materials_unlit": {}
      },
      "name": "mushroom-stump-ii_u1_v1",
      "pbrMetallicRoughness": {
        "baseColorTexture": {
          "index": 0
        },
        "metallicFactor": 0.0
      }
    }
  ],
  "meshes": [
    {
      "name": "Object_0",
      "primitives": [
        {
          "attributes": {
            "NORMAL": 1,
            "POSITION": 0,
            "TEXCOORD_0": 2,
            "TEXCOORD_1": 3
          },
          "indices": 4,
          "material": 0,
          "mode": 4
        }
      ]
    },
    {
      "name": "Object_1",
      "primitives": [
        {
          "attributes": {
            "NORMAL": 6,
            "POSITION": 5,
            "TEXCOORD_0": 7,
            "TEXCOORD_1": 8
          },
          "indices": 9,
          "material": 0,
          "mode": 4
        }
      ]
    },
    {
      "name": "Object_2",
      "primitives": [
        {
          "attributes": {
            "NORMAL": 11,
            "POSITION": 10,
            "TEXCOORD_0": 12,
            "TEXCOORD_1": 13
          },
          "indices": 14,
          "material": 0,
          "mode": 4
        }
      ]
    },
    {
      "name": "Object_3",
      "primitives": [
        {
          "attributes": {
            "NORMAL": 16,
            "POSITION": 15,
            "TEXCOORD_0": 17,
            "TEXCOORD_1": 18
          },
          "indices": 19,
          "material": 0,
          "mode": 4
        }
      ]
    }
  ],
  "nodes": [
    {
      "children": [
        1
      ],
      "matrix": [
        0.9999311566352844,
        -0.011733024381101131,
        -3.472616501265764e-18,
        0.0,
        -0.011716779321432114,
        -0.9985467195510864,
        0.05260423198342301,
        0.0,
        -0.0006172066787257791,
        -0.052600611001252906,
        -0.9986154437065125,
        0.0,
        -0.038060083985328674,
        -2.920551538467408,
        3.7597486972808833,
        1.0
      ],
      "name": "Sketchfab_model"
    },
    {
      "children": [
        2
      ],
      "name": "root"
    },
    {
      "children": [
        3
      ],
      "matrix": [
        1.0,
        0.0,
        0.0,
        0.0,
        0.0,
        2.220446049250313e-16,
        1.0,
        0.0,
        0.0,
        -1.0,
        2.220446049250313e-16,
        0.0,
        0.0,
        0.0,
        0.0,
        1.0
      ],
      "name": "GLTF_SceneRootNode"
    },
    {
      "children": [
        4,
        5,
        6,
        7
      ],
      "matrix": [
        1.0,
        0.0,
        0.0,
        0.0,
        0.0,
        -1.685873969314855e-07,
        0.9999999999999858,
        0.0,
        0.0,
        -0.9999999999999858,
        -1.685873969314855e-07,
        0.0,
        0.0,
        0.0,
        0.0,
        1.0
      ],
      "name": "mushroom-stump-ii_0"
    },
    {
      "mesh": 0,
      "name": "Object_4"
    },
    {
      "mesh": 1,
      "name": "Object_5"
    },
    {
      "mesh": 2,
      "name": "Object_6"
    },
    {
      "mesh": 3,
      "name": "Object_7"
    }
  ],
  "samplers": [
    {
      "magFilter": 9729,
      "minFilter": 9987,
      "wrapS": 10497,
      "wrapT": 10497
    }
  ],
  "scene": 0,
  "scenes": [
    {
      "name": "Sketchfab_Scene",
      "nodes": [
        0
      ]
    }
  ],
  "textures": [
    {
      "sampler": 0,
      "source": 0
    }
  ]
}
